<?xml version="1.0" ?><svg enable-background="new 0 0 64 64" height="64px" version="1.1" viewBox="0 0 64 64" width="64px" xml:space="preserve" xmlns="http://www.w3.org/2000/svg" xmlns:xlink="http://www.w3.org/1999/xlink"><g id="Layer_1"><g><circle cx="32" cy="32" fill="#77B3D4" r="32"/></g><g opacity="0.2"><path d="M32,12c-12.131,0-22,9.869-22,22s9.869,22,22,22c3.5,0,6.982-0.842,10.072-2.437    c0.981-0.506,1.367-1.712,0.86-2.694s-1.714-1.368-2.694-0.86C37.677,51.33,34.905,52,32,52c-9.925,0-18-8.075-18-18    s8.075-18,18-18s18,8.075,18,18c0,3.041-0.752,5.982-2.189,8.612c-1.753-1.387-4.394-4.196-4.394-8.529v-8.79c0-1.104-0.896-2-2-2    s-2,0.896-2,2v0.083c-1.993-1.716-4.581-2.759-7.417-2.759c-6.287,0-11.383,5.096-11.383,11.383S25.713,45.383,32,45.383    c3.734,0,7.038-1.806,9.114-4.584c2.304,4.245,6.165,6.283,6.396,6.401c0.89,0.458,1.98,0.184,2.552-0.637    C52.638,42.865,54,38.521,54,34C54,21.869,44.131,12,32,12z M32,41.383c-4.071,0-7.383-3.312-7.383-7.383    c0-4.071,3.312-7.383,7.383-7.383s7.383,3.312,7.383,7.383C39.383,38.071,36.071,41.383,32,41.383z" fill="#231F20"/></g><g><path d="M32,54c-12.131,0-22-9.869-22-22s9.869-22,22-22s22,9.869,22,22c0,4.521-1.361,8.866-3.938,12.563    c-0.571,0.821-1.663,1.092-2.552,0.637c-0.331-0.169-8.094-4.246-8.094-13.117v-8.789c0-1.104,0.895-2,2-2c1.104,0,2,0.896,2,2    v8.789c0,4.333,2.641,7.143,4.395,8.529C49.248,37.982,50,35.041,50,32c0-9.925-8.075-18-18-18s-18,8.075-18,18s8.075,18,18,18    c2.905,0,5.677-0.67,8.238-1.991c0.979-0.508,2.188-0.122,2.694,0.86c0.507,0.981,0.121,2.188-0.86,2.694    C38.982,53.157,35.499,54,32,54z" fill="#FFFFFF"/></g><g><path d="M32,24.617c4.071,0,7.383,3.312,7.383,7.383S36.071,39.383,32,39.383S24.617,36.071,24.617,32    S27.929,24.617,32,24.617 M32,20.617c-6.287,0-11.383,5.096-11.383,11.383S25.713,43.383,32,43.383S43.383,38.287,43.383,32    S38.287,20.617,32,20.617L32,20.617z" fill="#FFFFFF"/></g></g><g id="Layer_2"/></svg>